<mxfile host="Electron" modified="2024-06-07T21:38:10.462Z" agent="Mozilla/5.0 (Windows NT 10.0; Win64; x64) AppleWebKit/537.36 (KHTML, like Gecko) draw.io/24.5.1 Chrome/124.0.6367.207 Electron/30.0.6 Safari/537.36" etag="bPIGvUsp95nelMdkhjEC" version="24.5.1" type="device">
  <diagram name="Seite-1" id="IZHjcnEaxnJXH3WbeQdW">
    <mxGraphModel dx="1098" dy="820" grid="1" gridSize="10" guides="1" tooltips="1" connect="1" arrows="1" fold="1" page="1" pageScale="1" pageWidth="827" pageHeight="1169" math="0" shadow="0">
      <root>
        <mxCell id="0" />
        <mxCell id="1" parent="0" />
        <mxCell id="WnYCQm4Jhi_XYVByIQAH-26" value="" style="edgeStyle=orthogonalEdgeStyle;rounded=0;orthogonalLoop=1;jettySize=auto;html=1;" edge="1" parent="1" source="WnYCQm4Jhi_XYVByIQAH-2" target="WnYCQm4Jhi_XYVByIQAH-25">
          <mxGeometry relative="1" as="geometry" />
        </mxCell>
        <mxCell id="WnYCQm4Jhi_XYVByIQAH-2" value="X(z)" style="whiteSpace=wrap;html=1;aspect=fixed;" vertex="1" parent="1">
          <mxGeometry x="40" y="320" width="40" height="40" as="geometry" />
        </mxCell>
        <mxCell id="WnYCQm4Jhi_XYVByIQAH-3" value="Y(z)" style="whiteSpace=wrap;html=1;aspect=fixed;" vertex="1" parent="1">
          <mxGeometry x="560" y="320" width="40" height="40" as="geometry" />
        </mxCell>
        <mxCell id="WnYCQm4Jhi_XYVByIQAH-5" value="" style="edgeStyle=orthogonalEdgeStyle;rounded=0;orthogonalLoop=1;jettySize=auto;html=1;" edge="1" parent="1" target="WnYCQm4Jhi_XYVByIQAH-24">
          <mxGeometry relative="1" as="geometry">
            <mxPoint x="480" y="459" as="sourcePoint" />
          </mxGeometry>
        </mxCell>
        <mxCell id="WnYCQm4Jhi_XYVByIQAH-36" value="" style="edgeStyle=orthogonalEdgeStyle;rounded=0;orthogonalLoop=1;jettySize=auto;html=1;" edge="1" parent="1" source="WnYCQm4Jhi_XYVByIQAH-14" target="WnYCQm4Jhi_XYVByIQAH-32">
          <mxGeometry relative="1" as="geometry" />
        </mxCell>
        <mxCell id="WnYCQm4Jhi_XYVByIQAH-14" value="+" style="ellipse;whiteSpace=wrap;html=1;aspect=fixed;" vertex="1" parent="1">
          <mxGeometry x="200" y="320" width="40" height="40" as="geometry" />
        </mxCell>
        <mxCell id="WnYCQm4Jhi_XYVByIQAH-31" style="edgeStyle=orthogonalEdgeStyle;rounded=0;orthogonalLoop=1;jettySize=auto;html=1;exitX=1;exitY=0.5;exitDx=0;exitDy=0;entryX=0.5;entryY=1;entryDx=0;entryDy=0;" edge="1" parent="1" source="WnYCQm4Jhi_XYVByIQAH-24" target="WnYCQm4Jhi_XYVByIQAH-14">
          <mxGeometry relative="1" as="geometry">
            <mxPoint x="220" y="399" as="targetPoint" />
          </mxGeometry>
        </mxCell>
        <mxCell id="WnYCQm4Jhi_XYVByIQAH-24" value="-a1" style="triangle;whiteSpace=wrap;html=1;direction=west;" vertex="1" parent="1">
          <mxGeometry x="360" y="439" width="40" height="40" as="geometry" />
        </mxCell>
        <mxCell id="WnYCQm4Jhi_XYVByIQAH-27" value="" style="edgeStyle=orthogonalEdgeStyle;rounded=0;orthogonalLoop=1;jettySize=auto;html=1;" edge="1" parent="1" source="WnYCQm4Jhi_XYVByIQAH-25" target="WnYCQm4Jhi_XYVByIQAH-14">
          <mxGeometry relative="1" as="geometry" />
        </mxCell>
        <mxCell id="WnYCQm4Jhi_XYVByIQAH-25" value="b" style="triangle;whiteSpace=wrap;html=1;direction=east;" vertex="1" parent="1">
          <mxGeometry x="120" y="320" width="40" height="40" as="geometry" />
        </mxCell>
        <mxCell id="WnYCQm4Jhi_XYVByIQAH-37" style="edgeStyle=orthogonalEdgeStyle;rounded=0;orthogonalLoop=1;jettySize=auto;html=1;entryX=0.5;entryY=0;entryDx=0;entryDy=0;" edge="1" parent="1" source="WnYCQm4Jhi_XYVByIQAH-32" target="WnYCQm4Jhi_XYVByIQAH-14">
          <mxGeometry relative="1" as="geometry">
            <Array as="points">
              <mxPoint x="390" y="340" />
              <mxPoint x="390" y="300" />
              <mxPoint x="220" y="300" />
            </Array>
          </mxGeometry>
        </mxCell>
        <mxCell id="WnYCQm4Jhi_XYVByIQAH-39" style="edgeStyle=orthogonalEdgeStyle;rounded=0;orthogonalLoop=1;jettySize=auto;html=1;exitX=1;exitY=0.5;exitDx=0;exitDy=0;" edge="1" parent="1" source="WnYCQm4Jhi_XYVByIQAH-32" target="WnYCQm4Jhi_XYVByIQAH-38">
          <mxGeometry relative="1" as="geometry" />
        </mxCell>
        <mxCell id="WnYCQm4Jhi_XYVByIQAH-32" value="z&lt;sup&gt;-1&lt;/sup&gt;" style="whiteSpace=wrap;html=1;aspect=fixed;" vertex="1" parent="1">
          <mxGeometry x="320" y="320" width="40" height="40" as="geometry" />
        </mxCell>
        <mxCell id="WnYCQm4Jhi_XYVByIQAH-40" style="edgeStyle=orthogonalEdgeStyle;rounded=0;orthogonalLoop=1;jettySize=auto;html=1;exitX=1;exitY=0.5;exitDx=0;exitDy=0;entryX=0;entryY=0.5;entryDx=0;entryDy=0;" edge="1" parent="1" source="WnYCQm4Jhi_XYVByIQAH-38" target="WnYCQm4Jhi_XYVByIQAH-3">
          <mxGeometry relative="1" as="geometry" />
        </mxCell>
        <mxCell id="WnYCQm4Jhi_XYVByIQAH-41" style="edgeStyle=orthogonalEdgeStyle;rounded=0;orthogonalLoop=1;jettySize=auto;html=1;exitX=1;exitY=0.5;exitDx=0;exitDy=0;entryX=0;entryY=0.5;entryDx=0;entryDy=0;" edge="1" parent="1" source="WnYCQm4Jhi_XYVByIQAH-38" target="WnYCQm4Jhi_XYVByIQAH-24">
          <mxGeometry relative="1" as="geometry">
            <mxPoint x="500" y="439" as="targetPoint" />
          </mxGeometry>
        </mxCell>
        <mxCell id="WnYCQm4Jhi_XYVByIQAH-38" value="c" style="triangle;whiteSpace=wrap;html=1;direction=east;" vertex="1" parent="1">
          <mxGeometry x="440" y="320" width="40" height="40" as="geometry" />
        </mxCell>
      </root>
    </mxGraphModel>
  </diagram>
</mxfile>
